<?xml version="1.0" encoding="UTF-8"?>
<svg width="65px" height="65px" viewBox="0 0 65 65" version="1.1" xmlns="http://www.w3.org/2000/svg" xmlns:xlink="http://www.w3.org/1999/xlink">
    <!-- Generator: Sketch 43.1 (39012) - http://www.bohemiancoding.com/sketch -->
    <title>back</title>
    <desc>Created with Sketch.</desc>
    <defs></defs>
    <g id="Page-1" stroke="none" stroke-width="1" fill="none" fill-rule="evenodd">
        <g id="detail" transform="translate(-42.000000, -36.000000)" fill-rule="nonzero">
            <g id="back" transform="translate(43.000000, 37.000000)">
                <path d="M63,31.5 C63,48.8969696 48.8969696,63 31.5,63 C14.1030304,63 0,48.8969696 0,31.5 C0,14.1030304 14.1030304,0 31.5,0 C48.8969696,0 63,14.1030304 63,31.5 Z" id="Oval-1-Copy" stroke="#606060" stroke-width="1.8" transform="translate(31.500000, 31.500000) scale(-1, 1) translate(-31.500000, -31.500000) "></path>
                <path d="M23.6825891,29.5221158 L30.9826437,22.2220613 C31.7514884,21.4532166 31.7994324,20.254617 31.0897296,19.5449142 C30.3800268,18.8352114 29.1814272,18.8831554 28.4125825,19.6520001 L17.2756507,30.7889319 C16.506806,31.5577766 16.458862,32.7563762 17.1685648,33.466079 L27.4488095,43.7463237 C28.1585123,44.4560265 29.3571119,44.4080825 30.1259566,43.6392378 C30.8948013,42.8703931 30.9427453,41.6717936 30.2330425,40.9620908 L22.7305675,33.4596158 L23.1138449,33.4596158 L45.662301,33.4596158 C46.7544362,33.4596158 47.6268677,32.5781764 47.6268677,31.4908658 C47.6268677,30.3959747 46.7453333,29.5221158 45.6579055,29.5221158 L23.6825891,29.5221158 L23.6825891,29.5221158 Z M19.8855209,33.3191841 L19.8457119,33.3589931 L19.8479227,33.3037226 C19.86039,33.3090012 19.8729232,33.3141555 19.8855209,33.3191841 L19.8855209,33.3191841 Z" id="Rectangle-348" fill="#606060"></path>
            </g>
        </g>
    </g>
</svg>