<?xml version="1.0" encoding="UTF-8"?>
<svg width="42px" height="35px" viewBox="0 0 42 35" version="1.1" xmlns="http://www.w3.org/2000/svg" xmlns:xlink="http://www.w3.org/1999/xlink">
    <!-- Generator: Sketch 43.1 (39012) - http://www.bohemiancoding.com/sketch -->
    <title>Rectangle 839</title>
    <desc>Created with Sketch.</desc>
    <defs></defs>
    <g id="Page-1" stroke="none" stroke-width="1" fill="none" fill-rule="evenodd">
        <g id="homepage" transform="translate(-33.000000, -68.000000)" stroke="#FFFFFF" fill="#2D2D2D">
            <g id="Header-Copy" transform="translate(0.000000, -2.000000)">
                <path d="M35.8678244,71 C34.9467104,71 34.2,71.7397747 34.2,72.6666667 C34.2,73.5871412 34.945782,74.3333333 35.8678244,74.3333333 L72.5321756,74.3333333 C73.4532896,74.3333333 74.2,73.5935586 74.2,72.6666667 C74.2,71.7461921 73.454218,71 72.5321756,71 L35.8678244,71 L35.8678244,71 Z M35.8678244,91 C34.9467104,91 34.2,91.7397747 34.2,92.6666667 C34.2,93.5871412 34.945782,94.3333333 35.8678244,94.3333333 L72.5321756,94.3333333 C73.4532896,94.3333333 74.2,93.5935586 74.2,92.6666667 C74.2,91.7461921 73.454218,91 72.5321756,91 L35.8678244,91 L35.8678244,91 Z M35.8707888,101 C34.9480376,101 34.2,101.739775 34.2,102.666667 C34.2,103.587141 34.9596016,104.333333 35.8707888,104.333333 L52.5292112,104.333333 C53.4519624,104.333333 54.2,103.593559 54.2,102.666667 C54.2,101.746192 53.4403984,101 52.5292112,101 L35.8707888,101 L35.8707888,101 Z M35.8681194,81 C34.9468425,81 34.2,81.7397747 34.2,82.6666667 C34.2,83.5871412 34.9410514,84.3333333 35.8681194,84.3333333 L59.1985472,84.3333333 C60.1198242,84.3333333 60.8666667,83.5935586 60.8666667,82.6666667 C60.8666667,81.7461921 60.1256152,81 59.1985472,81 L35.8681194,81 L35.8681194,81 Z" id="Rectangle-839"></path>
            </g>
        </g>
    </g>
</svg>